<svg width="11" height="10" viewBox="0 0 11 10" fill="none" xmlns="http://www.w3.org/2000/svg">
<path d="M9.11954 4.0619C9.11954 4.95826 8.82851 5.78626 8.33825 6.45804L10.811 8.93229C11.0552 9.17639 11.0552 9.57282 10.811 9.81692C10.5669 10.061 10.1704 10.061 9.92622 9.81692L7.45344 7.34267C6.78153 7.83479 5.95337 8.12381 5.05684 8.12381C2.81259 8.12381 0.994141 6.30572 0.994141 4.0619C0.994141 1.81809 2.81259 0 5.05684 0C7.30109 0 9.11954 1.81809 9.11954 4.0619ZM5.05684 6.87399C6.60965 6.87399 7.86948 5.61441 7.86948 4.0619C7.86948 2.5094 6.60965 1.24982 5.05684 1.24982C3.50403 1.24982 2.2442 2.5094 2.2442 4.0619C2.2442 5.61441 3.50403 6.87399 5.05684 6.87399Z" fill="#464646"/>
</svg>
